<svg width="182" height="50" viewBox="0 0 182 50" fill="none" xmlns="http://www.w3.org/2000/svg">
<g clip-path="url(#clip0_1268_1151)">
<g clip-path="url(#clip1_1268_1151)">
<path fill-rule="evenodd" clip-rule="evenodd" d="M18.0251 45.1389L5.76847 14.6445C2.26365 18.2632 0.214792 23.0555 0.015956 28.0998C-0.18288 33.1441 1.48235 38.0841 4.69136 41.9697C7.90037 45.8553 12.4266 48.4121 17.3994 49.1483C22.3722 49.8846 27.4404 48.7482 31.6294 45.9579L23.2878 36.7232L18.0251 45.1389Z" fill="#D1D5DB"/>
<path fill-rule="evenodd" clip-rule="evenodd" d="M27.6694 32.1911L36.4187 41.4917C39.4824 37.5328 40.9918 32.5818 40.6602 27.5788C40.3286 22.5759 38.1792 17.8694 34.6201 14.3532C31.061 10.837 26.3401 8.7559 21.3539 8.50512C16.3677 8.25433 11.4633 9.85133 7.57227 12.9928L35.738 28.561L27.6694 32.1911Z" fill="#C34913"/>
<path d="M181.819 43.5231C181.819 46.6026 180.186 49.1096 178.175 49.1096H59.1712C57.1597 49.1096 55.5273 46.6131 55.5273 43.5231C55.5273 40.433 57.1597 37.9365 59.1712 37.9365H178.175C180.186 37.9365 181.819 40.433 181.819 43.5231Z" fill="#C34913"/>
<path d="M69.1385 40.7492H69.9401V46.5114H69.1385V43.8507H66.3368V46.5114H65.5352V40.7492H66.3368V43.1522H69.1385V40.7492Z" fill="white"/>
<path d="M73.6102 43.6262C73.6102 43.1328 73.6818 42.6977 73.8251 42.3208C73.9738 41.9438 74.1722 41.6306 74.4201 41.3812C74.6735 41.1262 74.9656 40.9349 75.2961 40.8075C75.6322 40.68 75.9876 40.6162 76.3622 40.6162C76.7314 40.6162 77.0785 40.68 77.4036 40.8075C77.7341 40.9349 78.0234 41.1262 78.2713 41.3812C78.5193 41.6306 78.7149 41.9438 78.8581 42.3208C79.0069 42.6977 79.0813 43.1328 79.0813 43.6262C79.0813 44.1195 79.0069 44.5547 78.8581 44.9316C78.7149 45.3086 78.5193 45.6245 78.2713 45.8795C78.0234 46.129 77.7341 46.3174 77.4036 46.4449C77.0785 46.5724 76.7314 46.6362 76.3622 46.6362C75.9876 46.6362 75.6322 46.5724 75.2961 46.4449C74.9656 46.3174 74.6735 46.129 74.4201 45.8795C74.1722 45.6245 73.9738 45.3086 73.8251 44.9316C73.6818 44.5547 73.6102 44.1195 73.6102 43.6262ZM74.4532 43.6262C74.4532 43.9754 74.4972 44.2942 74.5854 44.5824C74.6735 44.8651 74.7975 45.1062 74.9573 45.3058C75.1226 45.5053 75.3209 45.6606 75.5523 45.7714C75.7892 45.8767 76.0537 45.9294 76.3457 45.9294C76.6377 45.9294 76.8994 45.8767 77.1308 45.7714C77.3622 45.6606 77.5578 45.5053 77.7176 45.3058C77.8829 45.1062 78.0096 44.8651 78.0978 44.5824C78.1859 44.2942 78.23 43.9754 78.23 43.6262C78.23 43.277 78.1859 42.961 78.0978 42.6783C78.0096 42.39 77.8829 42.1461 77.7176 41.9466C77.5578 41.747 77.3622 41.5946 77.1308 41.4893C76.8994 41.3784 76.6377 41.323 76.3457 41.323C76.0537 41.323 75.7892 41.3784 75.5523 41.4893C75.3209 41.5946 75.1226 41.747 74.9573 41.9466C74.7975 42.1461 74.6735 42.39 74.5854 42.6783C74.4972 42.961 74.4532 43.277 74.4532 43.6262Z" fill="white"/>
<path d="M84.0032 45.9377C84.8407 45.9377 85.2594 45.6495 85.2594 45.073C85.2594 44.8956 85.2208 44.7459 85.1437 44.624C85.0721 44.4965 84.9729 44.3884 84.8462 44.2997C84.7194 44.2055 84.5734 44.1251 84.4082 44.0586C84.2484 43.992 84.0776 43.9255 83.8958 43.859C83.6864 43.7869 83.488 43.7066 83.3007 43.6179C83.1134 43.5236 82.9509 43.4155 82.8131 43.2936C82.6754 43.1661 82.5652 43.0164 82.4825 42.8446C82.4054 42.6728 82.3668 42.4649 82.3668 42.221C82.3668 41.7165 82.5376 41.323 82.8792 41.0403C83.2208 40.7576 83.6919 40.6162 84.2925 40.6162C84.6396 40.6162 84.9536 40.655 85.2346 40.7326C85.5211 40.8047 85.7305 40.8851 85.8627 40.9738L85.6065 41.6306C85.4908 41.5586 85.3172 41.4893 85.0858 41.4228C84.8599 41.3507 84.5955 41.3147 84.2925 41.3147C84.1382 41.3147 83.9949 41.3313 83.8627 41.3645C83.7305 41.3978 83.6148 41.4477 83.5156 41.5142C83.4164 41.5807 83.3365 41.6667 83.2759 41.772C83.2208 41.8718 83.1933 41.9909 83.1933 42.1295C83.1933 42.2847 83.2236 42.415 83.2842 42.5203C83.3448 42.6256 83.4302 42.7199 83.5404 42.803C83.6506 42.8806 83.7773 42.9527 83.9205 43.0192C84.0693 43.0857 84.2318 43.1522 84.4082 43.2188C84.6561 43.3185 84.882 43.4183 85.0858 43.5181C85.2952 43.6179 85.4743 43.7371 85.623 43.8756C85.7773 44.0142 85.8958 44.1805 85.9784 44.3745C86.061 44.563 86.1024 44.793 86.1024 45.0647C86.1024 45.5691 85.9178 45.9571 85.5486 46.2287C85.185 46.5004 84.6699 46.6362 84.0032 46.6362C83.7773 46.6362 83.5679 46.6195 83.3751 46.5863C83.1878 46.5586 83.0197 46.5253 82.871 46.4865C82.7222 46.4422 82.5927 46.3978 82.4825 46.3535C82.3778 46.3036 82.2952 46.262 82.2346 46.2287L82.4743 45.5636C82.601 45.6356 82.7938 45.716 83.0528 45.8047C83.3117 45.8934 83.6285 45.9377 84.0032 45.9377Z" fill="white"/>
<path d="M93.377 40.7492V41.4477H91.5753V46.5114H90.7737V41.4477H88.972V40.7492H93.377Z" fill="white"/>
<path d="M96.7028 40.7492H97.5045V46.5114H96.7028V40.7492Z" fill="white"/>
<path d="M105.327 46.5114C105.206 46.3063 105.066 46.0763 104.906 45.8213C104.751 45.5663 104.583 45.303 104.402 45.0314C104.22 44.7542 104.03 44.4743 103.831 44.1916C103.639 43.9089 103.446 43.6373 103.253 43.3767C103.06 43.1107 102.873 42.8612 102.691 42.6284C102.509 42.3956 102.341 42.1905 102.187 42.0131V46.5114H101.402V40.7492H102.038C102.297 41.0264 102.572 41.3507 102.864 41.7221C103.162 42.0879 103.454 42.4677 103.74 42.8612C104.032 43.2492 104.305 43.6317 104.559 44.0087C104.818 44.3856 105.035 44.721 105.212 45.0148V40.7492H105.997V46.5114H105.327Z" fill="white"/>
<path d="M113.39 43.6761H114.191V46.3701C114.125 46.3923 114.029 46.4172 113.902 46.4449C113.781 46.4726 113.637 46.5004 113.472 46.5281C113.312 46.5558 113.136 46.578 112.943 46.5946C112.75 46.6168 112.555 46.6279 112.356 46.6279C111.954 46.6279 111.588 46.5613 111.257 46.4283C110.927 46.2953 110.643 46.1012 110.406 45.8463C110.169 45.5913 109.985 45.2781 109.852 44.9067C109.726 44.5353 109.662 44.1085 109.662 43.6262C109.662 43.1439 109.734 42.7171 109.877 42.3457C110.026 41.9688 110.224 41.6528 110.472 41.3978C110.72 41.1428 111.009 40.9488 111.34 40.8158C111.676 40.6827 112.034 40.6162 112.414 40.6162C112.673 40.6162 112.902 40.6328 113.1 40.6661C113.304 40.6994 113.478 40.7382 113.621 40.7825C113.764 40.8269 113.88 40.8712 113.968 40.9155C114.062 40.9599 114.125 40.9932 114.158 41.0153L113.902 41.6888C113.742 41.5835 113.53 41.4976 113.266 41.4311C113.001 41.359 112.731 41.323 112.456 41.323C112.164 41.323 111.896 41.3756 111.654 41.481C111.417 41.5863 111.213 41.7387 111.042 41.9383C110.877 42.1378 110.748 42.3817 110.654 42.67C110.56 42.9527 110.514 43.2714 110.514 43.6262C110.514 43.9699 110.552 44.2831 110.629 44.5658C110.712 44.8485 110.833 45.0924 110.993 45.2975C111.158 45.497 111.359 45.6522 111.596 45.7631C111.839 45.874 112.122 45.9294 112.447 45.9294C112.679 45.9294 112.874 45.9183 113.034 45.8961C113.199 45.8684 113.318 45.8435 113.39 45.8213V43.6761Z" fill="white"/>
<path d="M122.318 46.5114V40.7492H125.814V41.4394H123.119V43.1522H125.516V43.8257H123.119V45.8213H126.02V46.5114H122.318Z" fill="white"/>
<path d="M132.957 46.5114C132.874 46.3451 132.775 46.1622 132.659 45.9627C132.543 45.7576 132.417 45.5469 132.279 45.3307C132.141 45.109 131.998 44.89 131.849 44.6739C131.7 44.4521 131.557 44.2443 131.419 44.0502C131.282 44.2443 131.138 44.4521 130.99 44.6739C130.841 44.89 130.698 45.109 130.56 45.3307C130.428 45.5469 130.301 45.7576 130.18 45.9627C130.064 46.1622 129.965 46.3451 129.882 46.5114H128.998C129.246 46.0236 129.532 45.5275 129.857 45.0231C130.188 44.5187 130.538 44.0004 130.907 43.4682L129.072 40.7492H129.998L131.411 42.8945L132.808 40.7492H133.725L131.924 43.4349C132.298 43.9726 132.651 44.4965 132.981 45.0065C133.312 45.5164 133.604 46.0181 133.857 46.5114H132.957Z" fill="white"/>
<path d="M138.732 40.691C139.537 40.691 140.154 40.8463 140.584 41.1567C141.019 41.4616 141.236 41.9189 141.236 42.5286C141.236 42.8612 141.176 43.1467 141.055 43.3851C140.939 43.6179 140.768 43.8091 140.542 43.9588C140.322 44.1029 140.052 44.2082 139.732 44.2747C139.413 44.3413 139.052 44.3745 138.65 44.3745H138.013V46.5114H137.212V40.8324C137.438 40.777 137.688 40.7409 137.964 40.7243C138.245 40.7021 138.501 40.691 138.732 40.691ZM138.798 41.3978C138.457 41.3978 138.195 41.4061 138.013 41.4228V43.6844H138.617C138.892 43.6844 139.14 43.6678 139.36 43.6345C139.581 43.5957 139.765 43.5347 139.914 43.4516C140.068 43.3629 140.187 43.2437 140.269 43.094C140.352 42.9444 140.393 42.7531 140.393 42.5203C140.393 42.2986 140.349 42.1157 140.261 41.9715C140.179 41.8274 140.063 41.7138 139.914 41.6306C139.771 41.5419 139.603 41.481 139.41 41.4477C139.217 41.4144 139.013 41.3978 138.798 41.3978Z" fill="white"/>
<path d="M144.719 46.5114V40.7492H148.215V41.4394H145.521V43.1522H147.917V43.8257H145.521V45.8213H148.422V46.5114H144.719Z" fill="white"/>
<path d="M154.721 44.1001C154.81 44.211 154.92 44.3579 155.052 44.5408C155.19 44.7182 155.33 44.9178 155.473 45.1395C155.617 45.3557 155.757 45.583 155.895 45.8213C156.038 46.0597 156.159 46.2897 156.259 46.5114H155.383C155.272 46.3008 155.151 46.0874 155.019 45.8712C154.892 45.655 154.763 45.4499 154.631 45.2559C154.498 45.0563 154.366 44.8706 154.234 44.6988C154.107 44.527 153.991 44.3773 153.887 44.2498C153.815 44.2553 153.741 44.2581 153.664 44.2581C153.592 44.2581 153.518 44.2581 153.44 44.2581H152.721V46.5114H151.92V40.8324C152.146 40.777 152.396 40.7409 152.672 40.7243C152.953 40.7021 153.209 40.691 153.44 40.691C154.245 40.691 154.856 40.8435 155.275 41.1484C155.699 41.4532 155.912 41.9078 155.912 42.512C155.912 42.8945 155.81 43.2215 155.606 43.4932C155.407 43.7648 155.113 43.9671 154.721 44.1001ZM153.507 41.3978C153.165 41.3978 152.903 41.4061 152.721 41.4228V43.5929H153.292C153.567 43.5929 153.815 43.5791 154.035 43.5514C154.256 43.5236 154.44 43.471 154.589 43.3934C154.743 43.3158 154.862 43.2077 154.945 43.0691C155.027 42.925 155.069 42.7365 155.069 42.5037C155.069 42.2875 155.027 42.1073 154.945 41.9632C154.862 41.8191 154.749 41.7055 154.606 41.6223C154.468 41.5392 154.303 41.481 154.11 41.4477C153.923 41.4144 153.721 41.3978 153.507 41.3978Z" fill="white"/>
<path d="M163.423 40.7492V41.4477H161.621V46.5114H160.82V41.4477H159.018V40.7492H163.423Z" fill="white"/>
<path d="M168.08 45.9377C168.917 45.9377 169.336 45.6495 169.336 45.073C169.336 44.8956 169.297 44.7459 169.22 44.624C169.148 44.4965 169.049 44.3884 168.923 44.2997C168.796 44.2055 168.65 44.1251 168.485 44.0586C168.325 43.992 168.154 43.9255 167.972 43.859C167.763 43.7869 167.564 43.7066 167.377 43.6179C167.19 43.5236 167.027 43.4155 166.889 43.2936C166.752 43.1661 166.642 43.0164 166.559 42.8446C166.482 42.6728 166.443 42.4649 166.443 42.221C166.443 41.7165 166.614 41.323 166.956 41.0403C167.297 40.7576 167.768 40.6162 168.369 40.6162C168.716 40.6162 169.03 40.655 169.311 40.7326C169.597 40.8047 169.807 40.8851 169.939 40.9738L169.683 41.6306C169.567 41.5586 169.394 41.4893 169.162 41.4228C168.936 41.3507 168.672 41.3147 168.369 41.3147C168.215 41.3147 168.071 41.3313 167.939 41.3645C167.807 41.3978 167.691 41.4477 167.592 41.5142C167.493 41.5807 167.413 41.6667 167.352 41.772C167.297 41.8718 167.27 41.9909 167.27 42.1295C167.27 42.2847 167.3 42.415 167.361 42.5203C167.421 42.6256 167.507 42.7199 167.617 42.803C167.727 42.8806 167.854 42.9527 167.997 43.0192C168.146 43.0857 168.308 43.1522 168.485 43.2188C168.732 43.3185 168.958 43.4183 169.162 43.5181C169.372 43.6179 169.551 43.7371 169.699 43.8756C169.854 44.0142 169.972 44.1805 170.055 44.3745C170.137 44.563 170.179 44.793 170.179 45.0647C170.179 45.5691 169.994 45.9571 169.625 46.2287C169.261 46.5004 168.746 46.6362 168.08 46.6362C167.854 46.6362 167.644 46.6195 167.451 46.5863C167.264 46.5586 167.096 46.5253 166.947 46.4865C166.799 46.4422 166.669 46.3978 166.559 46.3535C166.454 46.3036 166.372 46.262 166.311 46.2287L166.551 45.5636C166.677 45.6356 166.87 45.716 167.129 45.8047C167.388 45.8934 167.705 45.9377 168.08 45.9377Z" fill="white"/>
<path d="M62.8412 22.7052C62.8412 20.1795 62.2678 18.2151 61.1211 16.812C60.0054 15.4089 58.1924 14.7073 55.6821 14.7073C55.1552 14.7073 54.5974 14.7385 54.0085 14.8009C53.4507 14.832 52.8928 14.9256 52.335 15.0815V29.066C52.8308 29.409 53.4817 29.7364 54.2874 30.0482C55.1242 30.3288 56.0075 30.4692 56.9372 30.4692C58.9827 30.4692 60.4703 29.7676 61.4 28.3645C62.3608 26.9613 62.8412 25.0749 62.8412 22.7052ZM68.6056 22.6116C68.6056 24.4825 68.3577 26.1974 67.8618 27.7564C67.3969 29.3155 66.7151 30.6562 65.8164 31.7788C64.9176 32.9013 63.7864 33.7743 62.4228 34.3979C61.0901 35.0215 59.5715 35.3334 57.867 35.3334C56.7203 35.3334 55.6666 35.193 54.7058 34.9124C53.7451 34.6318 52.9548 34.32 52.335 33.977V49.7077H46.71V11.1527C47.8567 10.8409 49.2668 10.5447 50.9403 10.2641C52.6139 9.98343 54.3804 9.84312 56.2399 9.84312C58.1614 9.84312 59.8814 10.1393 61.4 10.7318C62.9186 11.3242 64.2048 12.1817 65.2585 13.3042C66.3432 14.3955 67.1645 15.7363 67.7224 17.3265C68.3112 18.8855 68.6056 20.6472 68.6056 22.6116Z" fill="white"/>
<path d="M92.9048 22.5649C92.9048 24.4981 92.6259 26.2598 92.0681 27.85C91.5102 29.4402 90.7199 30.7966 89.6972 31.9191C88.6745 33.0416 87.4348 33.9146 85.9782 34.5382C84.5526 35.1619 82.972 35.4737 81.2365 35.4737C79.5009 35.4737 77.9203 35.1619 76.4947 34.5382C75.0691 33.9146 73.8449 33.0416 72.8222 31.9191C71.7995 30.7966 70.9937 29.4402 70.4048 27.85C69.847 26.2598 69.5681 24.4981 69.5681 22.5649C69.5681 20.6316 69.847 18.8855 70.4048 17.3265C70.9937 15.7363 71.7995 14.3799 72.8222 13.2574C73.8759 12.1349 75.1156 11.2774 76.5412 10.685C77.9668 10.0614 79.5319 9.74958 81.2365 9.74958C82.941 9.74958 84.5061 10.0614 85.9317 10.685C87.3883 11.2774 88.628 12.1349 89.6507 13.2574C90.6734 14.3799 91.4637 15.7363 92.0216 17.3265C92.6104 18.8855 92.9048 20.6316 92.9048 22.5649ZM87.1404 22.5649C87.1404 20.1328 86.6135 18.2151 85.5598 16.812C84.5371 15.3777 83.096 14.6605 81.2365 14.6605C79.3769 14.6605 77.9203 15.3777 76.8666 16.812C75.8439 18.2151 75.3325 20.1328 75.3325 22.5649C75.3325 25.0281 75.8439 26.9769 76.8666 28.4112C77.9203 29.8455 79.3769 30.5627 81.2365 30.5627C83.096 30.5627 84.5371 29.8455 85.5598 28.4112C86.6135 26.9769 87.1404 25.0281 87.1404 22.5649Z" fill="white"/>
<path d="M104.574 11.1527C105.659 10.8409 107.069 10.5447 108.805 10.2641C110.54 9.98343 112.462 9.84312 114.569 9.84312C116.553 9.84312 118.211 10.1237 119.543 10.685C120.876 11.2151 121.93 11.979 122.704 12.9768C123.51 13.9434 124.068 15.1283 124.378 16.5314C124.719 17.9033 124.889 19.4156 124.889 21.0682V34.8189H119.264V21.9568C119.264 20.6472 119.171 19.5403 118.985 18.6361C118.831 17.7007 118.552 16.9523 118.149 16.3911C117.777 15.7986 117.25 15.3777 116.568 15.1283C115.917 14.8476 115.112 14.7073 114.151 14.7073C113.438 14.7073 112.694 14.7541 111.919 14.8476C111.145 14.9412 110.571 15.0191 110.199 15.0815V34.8189H104.574V11.1527Z" fill="white"/>
<path d="M128.002 3.9032L133.627 2.96777V10.3576H142.274V15.0815H133.627V25.0437C133.627 27.0081 133.937 28.4112 134.557 29.2531C135.177 30.095 136.231 30.5159 137.718 30.5159C138.741 30.5159 139.64 30.4068 140.414 30.1885C141.22 29.9703 141.856 29.7676 142.32 29.5805L143.25 34.0705C142.599 34.3512 141.747 34.6318 140.693 34.9124C139.64 35.2242 138.4 35.3801 136.974 35.3801C135.239 35.3801 133.782 35.1463 132.605 34.6786C131.458 34.2109 130.544 33.5405 129.862 32.6674C129.18 31.7632 128.7 30.6874 128.421 29.4402C128.142 28.1618 128.002 26.7119 128.002 25.0905V3.9032Z" fill="white"/>
<path d="M142.468 22.7052C142.468 20.5537 142.778 18.6673 143.398 17.0459C144.049 15.4245 144.901 14.0837 145.955 13.0236C147.009 11.9322 148.217 11.1215 149.581 10.5915C150.944 10.0302 152.339 9.74958 153.765 9.74958C157.112 9.74958 159.715 10.7941 161.575 12.8832C163.465 14.9723 164.41 18.0904 164.41 22.2375C164.41 22.5493 164.395 22.9078 164.364 23.3132C164.364 23.6874 164.348 24.0303 164.317 24.3422H148.279C148.434 26.3065 149.116 27.8344 150.325 28.9257C151.564 29.9859 153.346 30.5159 155.671 30.5159C157.034 30.5159 158.274 30.3912 159.39 30.1418C160.536 29.8923 161.435 29.6273 162.086 29.3467L162.83 33.977C162.52 34.1329 162.086 34.3044 161.528 34.4915C161.001 34.6474 160.381 34.7877 159.669 34.9124C158.987 35.0683 158.243 35.193 157.437 35.2866C156.631 35.3801 155.81 35.4269 154.973 35.4269C152.835 35.4269 150.975 35.1151 149.395 34.4915C147.814 33.8367 146.513 32.948 145.49 31.8255C144.467 30.6718 143.708 29.3311 143.212 27.8032C142.716 26.2442 142.468 24.5448 142.468 22.7052ZM158.785 20.1795C158.785 19.4 158.677 18.6673 158.46 17.9813C158.243 17.2641 157.918 16.6561 157.484 16.1572C157.081 15.6271 156.569 15.2218 155.95 14.9412C155.361 14.6294 154.648 14.4735 153.811 14.4735C152.943 14.4735 152.184 14.645 151.533 14.9879C150.882 15.2997 150.325 15.7207 149.86 16.2508C149.426 16.7808 149.085 17.3889 148.837 18.0748C148.589 18.7608 148.419 19.4624 148.326 20.1795H158.785Z" fill="white"/>
<path d="M180.741 15.4557C180.276 15.2997 179.625 15.1438 178.788 14.9879C177.983 14.8009 177.037 14.7073 175.953 14.7073C175.333 14.7073 174.667 14.7697 173.954 14.8944C173.272 15.0191 172.792 15.1283 172.513 15.2218V34.8189H166.888V11.5269C167.972 11.1215 169.321 10.7474 170.932 10.4044C172.575 10.0302 174.388 9.84312 176.371 9.84312C176.743 9.84312 177.177 9.8743 177.673 9.93666C178.169 9.96784 178.665 10.0302 179.16 10.1237C179.656 10.1861 180.137 10.2797 180.602 10.4044C181.066 10.4979 181.438 10.5915 181.717 10.685L180.741 15.4557Z" fill="white"/>
<path fill-rule="evenodd" clip-rule="evenodd" d="M95.2597 34.8189H100.885V10.3576H95.2597V34.8189Z" fill="white"/>
<ellipse cx="97.8819" cy="3.37791" rx="3.35744" ry="3.37791" fill="#C34913"/>
</g>
</g>
<defs>
<clipPath id="clip0_1268_1151">
<rect width="182" height="50" fill="white"/>
</clipPath>
<clipPath id="clip1_1268_1151">
<rect width="181.818" height="50" fill="white"/>
</clipPath>
</defs>
</svg>
